<?xml version="1.0" encoding="utf-8"?>
<!-- Generator: Adobe Illustrator 19.0.0, SVG Export Plug-In . SVG Version: 6.00 Build 0)  -->
<svg version="1.1" xmlns="http://www.w3.org/2000/svg" xmlns:xlink="http://www.w3.org/1999/xlink" x="0px" y="0px"
	 viewBox="0 0 129 181" style="enable-background:new 0 0 129 181;" xml:space="preserve">
<style type="text/css">
	.st0{display:none;opacity:0.75;}
	.st1{display:inline;fill:#676767;}
	.st2{display:none;}
	.st3{display:inline;fill:#F3F3F3;}
	.st4{display:inline;fill:none;stroke:#818181;stroke-width:0.25;stroke-miterlimit:10;}
	.st5{filter:url(#Adobe_OpacityMaskFilter);}
	.st6{fill:#333333;}
	.st7{fill:#FFFFFF;}
	.st8{mask:url(#XMLID_66_);}
	.st9{display:inline;}
	.st10{filter:url(#Adobe_OpacityMaskFilter_1_);}
	.st11{display:none;mask:url(#XMLID_72_);}
	.st12{filter:url(#Adobe_OpacityMaskFilter_2_);}
	.st13{display:none;mask:url(#XMLID_87_);}
	.st14{filter:url(#Adobe_OpacityMaskFilter_3_);}
	.st15{display:none;mask:url(#XMLID_88_);}
</style>
<g id="Layer_1">
	<g id="XMLID_2_">
		<g id="XMLID_23_" class="st0">
			<path id="XMLID_29_" class="st1" d="M128,177.5c0,2.2-1.8,4-4,4H4c-2.2,0-4-1.8-4-4V5.5c0-2.2,1.8-4,4-4h120c2.2,0,4,1.8,4,4
				V177.5z"/>
		</g>
		<g id="XMLID_19_" class="st2">
			<path id="XMLID_26_" class="st3" d="M129,176.5c0,2.2-1.8,4-4,4H5c-2.2,0-4-1.8-4-4V4.5c0-2.2,1.8-4,4-4h120c2.2,0,4,1.8,4,4
				V176.5z"/>
			<path id="XMLID_25_" class="st4" d="M129,176.5c0,2.2-1.8,4-4,4H5c-2.2,0-4-1.8-4-4V4.5c0-2.2,1.8-4,4-4h120c2.2,0,4,1.8,4,4
				V176.5z"/>
		</g>
		<defs>
			<filter id="Adobe_OpacityMaskFilter" filterUnits="userSpaceOnUse" x="1" y="0.5" width="128" height="180">
				<feColorMatrix  type="matrix" values="1 0 0 0 0  0 1 0 0 0  0 0 1 0 0  0 0 0 1 0"/>
			</filter>
		</defs>
		<mask maskUnits="userSpaceOnUse" x="1" y="0.5" width="128" height="180" id="XMLID_66_">
			<g id="XMLID_6_" class="st5">
				<g id="XMLID_13_">
					<polygon id="XMLID_15_" class="st6" points="129.1,113.4 129.1,180.5 64,180.5 					"/>
					<polygon id="XMLID_14_" class="st7" points="-1,65.6 -1,-0.5 63.1,-0.5 					"/>
				</g>
				<g id="XMLID_7_">
					<polygon id="XMLID_12_" class="st7" points="129.1,115.4 129.1,181.5 65,181.5 					"/>
					<polygon id="XMLID_11_" class="st6" points="1,67.6 1,0.5 66.1,0.5 					"/>
					<polygon id="XMLID_9_" class="st7" points="0,66.6 0,0.5 64.1,0.5 					"/>
				</g>
			</g>
		</mask>
		<g id="XMLID_16_" class="st8">
			<path id="XMLID_39_" d="M129,176.5c0,2.2-1.8,4-4,4H5c-2.2,0-4-1.8-4-4V4.5c0-2.2,1.8-4,4-4h120c2.2,0,4,1.8,4,4V176.5z"/>
		</g>
		<path id="XMLID_3_" class="st2" d="M79.6,90.3c0,12-4.8,20.2-14.7,20.2c-10,0-14.4-9-14.5-19.9c0-11.2,4.8-20.1,14.8-20.1
			C75.5,70.5,79.6,79.7,79.6,90.3z M59.5,90.6c-0.1,8.9,2.1,13.1,5.6,13.1c3.5,0,5.4-4.4,5.4-13.2c0-8.6-1.8-13.1-5.5-13.1
			C61.7,77.3,59.5,81.6,59.5,90.6z"/>
	</g>
</g>
<g id="Layer_2" class="st2">
	<g id="XMLID_8_" class="st9">
		<g id="XMLID_46_" class="st0">
			<path id="XMLID_52_" class="st9" d="M127.9,177c0,2.2-1.8,4-4,4H3.9c-2.2,0-4-1.8-4-4V5c0-2.2,1.8-4,4-4h120c2.2,0,4,1.8,4,4V177
				z"/>
		</g>
		<g id="XMLID_42_" class="st2">
			<path id="XMLID_49_" class="st9" d="M128.9,176c0,2.2-1.8,4-4,4H4.9c-2.2,0-4-1.8-4-4V4c0-2.2,1.8-4,4-4h120c2.2,0,4,1.8,4,4V176
				z"/>
		</g>
		<defs>
			<filter id="Adobe_OpacityMaskFilter_1_" filterUnits="userSpaceOnUse" x="0.9" y="0" width="128" height="180">
				<feColorMatrix  type="matrix" values="1 0 0 0 0  0 1 0 0 0  0 0 1 0 0  0 0 0 1 0"/>
			</filter>
		</defs>
		<mask maskUnits="userSpaceOnUse" x="0.9" y="0" width="128" height="180" id="XMLID_72_">
			<g id="XMLID_21_" class="st10">
				<g id="XMLID_34_">
					<polygon id="XMLID_36_" class="st6" points="129,112.9 129,180 63.9,180 					"/>
					<polygon id="XMLID_35_" class="st7" points="-1.1,65.1 -1.1,-1 63,-1 					"/>
				</g>
				<g id="XMLID_28_">
					<polygon id="XMLID_33_" class="st7" points="129,114.9 129,181 64.9,181 					"/>
					<polygon id="XMLID_32_" class="st6" points="0.9,67.1 0.9,0 66,0 					"/>
					<polygon id="XMLID_31_" class="st7" points="-0.1,66.1 -0.1,0 64,0 					"/>
				</g>
			</g>
		</mask>
		<g id="XMLID_38_" class="st11">
			<path id="XMLID_57_" class="st9" d="M128.9,176c0,2.2-1.8,4-4,4H4.9c-2.2,0-4-1.8-4-4V4c0-2.2,1.8-4,4-4h120c2.2,0,4,1.8,4,4V176
				z"/>
		</g>
		<path id="XMLID_10_" d="M64.9,66c-13.3,0-24,10.7-24,24s10.7,24,24,24s24-10.7,24-24S78.2,66,64.9,66z M44.9,90c0-11,9-20,20-20
			c4.8,0,9.2,1.7,12.7,4.5l-28.1,28.1C46.6,99.2,44.9,94.8,44.9,90z M64.9,110c-4.8,0-9.2-1.7-12.7-4.5l28.1-28.1
			c2.8,3.4,4.5,7.9,4.5,12.7C84.9,101,76,110,64.9,110z"/>
	</g>
</g>
<g id="Layer_3" class="st2">
	<g id="XMLID_22_" class="st9">
		<g id="XMLID_67_" class="st0">
			<path id="XMLID_73_" class="st9" d="M128,177c0,2.2-1.8,4-4,4H4c-2.2,0-4-1.8-4-4V5c0-2.2,1.8-4,4-4h120c2.2,0,4,1.8,4,4V177z"/>
		</g>
		<g id="XMLID_63_" class="st2">
			<path id="XMLID_70_" class="st9" d="M129,176c0,2.2-1.8,4-4,4H5c-2.2,0-4-1.8-4-4V4c0-2.2,1.8-4,4-4h120c2.2,0,4,1.8,4,4V176z"/>
		</g>
		<defs>
			<filter id="Adobe_OpacityMaskFilter_2_" filterUnits="userSpaceOnUse" x="1" y="0" width="128" height="180">
				<feColorMatrix  type="matrix" values="1 0 0 0 0  0 1 0 0 0  0 0 1 0 0  0 0 0 1 0"/>
			</filter>
		</defs>
		<mask maskUnits="userSpaceOnUse" x="1" y="0" width="128" height="180" id="XMLID_87_">
			<g id="XMLID_43_" class="st12">
				<g id="XMLID_56_">
					<polygon id="XMLID_59_" class="st6" points="129.1,112.9 129.1,180 64,180 					"/>
					<polygon id="XMLID_58_" class="st7" points="-1,65.1 -1,-1 63.1,-1 					"/>
				</g>
				<g id="XMLID_44_">
					<polygon id="XMLID_54_" class="st7" points="129.1,114.9 129.1,181 65,181 					"/>
					<polygon id="XMLID_53_" class="st6" points="1,67.1 1,0 66.1,0 					"/>
					<polygon id="XMLID_48_" class="st7" points="0,66.1 0,0 64.1,0 					"/>
				</g>
			</g>
		</mask>
		<g id="XMLID_60_" class="st13">
			<path id="XMLID_78_" class="st9" d="M129,176c0,2.2-1.8,4-4,4H5c-2.2,0-4-1.8-4-4V4c0-2.2,1.8-4,4-4h120c2.2,0,4,1.8,4,4V176z"/>
		</g>
		<g id="XMLID_30_">
			<polygon id="XMLID_41_" points="86.4,77.3 84.2,75.2 49.7,109.7 54,114 81,87 82.1,94.6 86.4,90.3 			"/>
			<polygon id="XMLID_40_" points="43.6,102.7 45.8,104.8 80.3,70.3 76,66 49,93 47.9,85.4 43.6,89.7 			"/>
		</g>
	</g>
</g>
<g id="Layer_4">
	<g id="XMLID_45_">
		<g id="XMLID_93_" class="st0">
			<path id="XMLID_99_" class="st9" d="M127.4,177.5c0,2.2-1.8,4-4,4H3.4c-2.2,0-4-1.8-4-4V5.5c0-2.2,1.8-4,4-4h120c2.2,0,4,1.8,4,4
				V177.5z"/>
		</g>
		<g id="XMLID_89_" class="st2">
			<path id="XMLID_96_" class="st9" d="M128.4,176.5c0,2.2-1.8,4-4,4H4.4c-2.2,0-4-1.8-4-4V4.5c0-2.2,1.8-4,4-4h120c2.2,0,4,1.8,4,4
				V176.5z"/>
		</g>
		<defs>
			<filter id="Adobe_OpacityMaskFilter_3_" filterUnits="userSpaceOnUse" x="0.4" y="0.5" width="128" height="180">
				<feColorMatrix  type="matrix" values="1 0 0 0 0  0 1 0 0 0  0 0 1 0 0  0 0 0 1 0"/>
			</filter>
		</defs>
		<mask maskUnits="userSpaceOnUse" x="0.4" y="0.5" width="128" height="180" id="XMLID_88_">
			<g id="XMLID_77_" class="st14">
				<g id="XMLID_83_">
					<polygon id="XMLID_85_" class="st6" points="128.5,113.4 128.5,180.5 63.4,180.5 					"/>
					<polygon id="XMLID_84_" class="st7" points="-1.6,65.6 -1.6,-0.5 62.5,-0.5 					"/>
				</g>
				<g id="XMLID_79_">
					<polygon id="XMLID_82_" class="st7" points="128.5,115.4 128.5,181.5 64.4,181.5 					"/>
					<polygon id="XMLID_81_" class="st6" points="0.4,67.6 0.4,0.5 65.5,0.5 					"/>
					<polygon id="XMLID_80_" class="st7" points="-0.6,66.6 -0.6,0.5 63.5,0.5 					"/>
				</g>
			</g>
		</mask>
		<g id="XMLID_86_" class="st15">
			<path id="XMLID_104_" class="st9" d="M128.4,176.5c0,2.2-1.8,4-4,4H4.4c-2.2,0-4-1.8-4-4V4.5c0-2.2,1.8-4,4-4h120
				c2.2,0,4,1.8,4,4V176.5z"/>
		</g>
		<g id="XMLID_51_">
			<path id="XMLID_74_" d="M65.2,98.8v-3.4l3.1-2.8c5.2-4.7,7.8-7.4,7.8-10.2c0-2-1.2-3.5-3.9-3.5c-2.1,0-3.9,1-5.1,2l-1.6-4
				c1.8-1.4,4.6-2.5,7.8-2.5c5.4,0,8.4,3.2,8.4,7.5c0,4-2.9,7.2-6.4,10.3l-2.2,1.8v0.1h9v4.6H65.2z"/>
			<g id="XMLID_64_">
				<path id="XMLID_65_" d="M56.2,78.3v6.9h6.6v3h-6.6V95h-3.1v-6.9h-6.6v-3h6.6v-6.9H56.2z"/>
			</g>
			<rect id="XMLID_62_" x="40.4" y="102.5" width="20.9" height="4"/>
			<rect id="XMLID_1_" x="68.1" y="102.5" width="20.9" height="4"/>
		</g>
	</g>
</g>
</svg>
