<?xml version="1.0" encoding="utf-8"?>
<!-- Generator: Adobe Illustrator 19.0.0, SVG Export Plug-In . SVG Version: 6.00 Build 0)  -->
<svg version="1.1" xmlns="http://www.w3.org/2000/svg" xmlns:xlink="http://www.w3.org/1999/xlink" x="0px" y="0px"
	 viewBox="0 0 129 181" style="enable-background:new 0 0 129 181;" xml:space="preserve">
<style type="text/css">
	.st0{display:none;}
	.st1{display:inline;}
	.st2{display:none;opacity:0.75;}
	.st3{display:inline;fill:#676767;}
	.st4{display:inline;fill:#F3F3F3;}
	.st5{display:inline;fill:none;stroke:#818181;stroke-width:0.25;stroke-miterlimit:10;}
	.st6{filter:url(#Adobe_OpacityMaskFilter);}
	.st7{fill:#333333;}
	.st8{fill:#FFFFFF;}
	.st9{display:none;mask:url(#XMLID_156_);}
	.st10{opacity:0.75;}
	.st11{display:inline;filter:url(#Adobe_OpacityMaskFilter_1_);}
	.st12{mask:url(#XMLID_280_);}
	.st13{filter:url(#Adobe_OpacityMaskFilter_2_);}
	.st14{display:none;mask:url(#XMLID_282_);}
	.st15{filter:url(#Adobe_OpacityMaskFilter_3_);}
	.st16{display:none;mask:url(#XMLID_283_);}
	.st17{fill:#676767;}
	.st18{fill:#F3F3F3;}
	.st19{fill:none;stroke:#818181;stroke-width:0.25;stroke-miterlimit:10;}
	.st20{filter:url(#Adobe_OpacityMaskFilter_4_);}
	.st21{mask:url(#XMLID_284_);}
	.st22{fill:#4E4E4E;}
	.st23{fill:#F16462;}
	.st24{fill:#18C1E3;}
	.st25{fill:#61C090;}
	.st26{fill:#F7E041;}
	.st27{display:inline;filter:url(#Adobe_OpacityMaskFilter_5_);}
	.st28{mask:url(#XMLID_285_);}
	.st29{display:inline;fill:#4E4E4E;}
	.st30{fill:none;stroke:#F16462;stroke-miterlimit:10;}
	.st31{fill:#F7E359;}
	.st32{font-family:'MyriadPro-Regular';}
	.st33{font-size:16.7422px;}
	.st34{filter:url(#Adobe_OpacityMaskFilter_6_);}
	.st35{display:none;mask:url(#XMLID_286_);}
	.st36{filter:url(#Adobe_OpacityMaskFilter_7_);}
	.st37{display:none;mask:url(#XMLID_287_);}
</style>
<g id="Layer_1" class="st0">
	<g id="XMLID_2_" class="st1">
		<g id="XMLID_23_" class="st2">
			<path id="XMLID_29_" class="st3" d="M128,177.5c0,2.2-1.8,4-4,4H4c-2.2,0-4-1.8-4-4V5.5c0-2.2,1.8-4,4-4h120c2.2,0,4,1.8,4,4
				V177.5z"/>
		</g>
		<g id="XMLID_19_" class="st0">
			<path id="XMLID_26_" class="st4" d="M129,176.5c0,2.2-1.8,4-4,4H5c-2.2,0-4-1.8-4-4V4.5c0-2.2,1.8-4,4-4h120c2.2,0,4,1.8,4,4
				V176.5z"/>
			<path id="XMLID_25_" class="st5" d="M129,176.5c0,2.2-1.8,4-4,4H5c-2.2,0-4-1.8-4-4V4.5c0-2.2,1.8-4,4-4h120c2.2,0,4,1.8,4,4
				V176.5z"/>
		</g>
		<defs>
			<filter id="Adobe_OpacityMaskFilter" filterUnits="userSpaceOnUse" x="1" y="0.5" width="128" height="180">
				<feColorMatrix  type="matrix" values="1 0 0 0 0  0 1 0 0 0  0 0 1 0 0  0 0 0 1 0"/>
			</filter>
		</defs>
		<mask maskUnits="userSpaceOnUse" x="1" y="0.5" width="128" height="180" id="XMLID_156_">
			<g id="XMLID_6_" class="st6">
				<g id="XMLID_13_">
					<polygon id="XMLID_15_" class="st7" points="129.1,113.4 129.1,180.5 64,180.5 					"/>
					<polygon id="XMLID_14_" class="st8" points="-1,65.6 -1,-0.5 63.1,-0.5 					"/>
				</g>
				<g id="XMLID_7_">
					<polygon id="XMLID_12_" class="st8" points="129.1,115.4 129.1,181.5 65,181.5 					"/>
					<polygon id="XMLID_11_" class="st7" points="1,67.6 1,0.5 66.1,0.5 					"/>
					<polygon id="XMLID_9_" class="st8" points="0,66.6 0,0.5 64.1,0.5 					"/>
				</g>
			</g>
		</mask>
		<g id="XMLID_16_" class="st9">
			<path id="XMLID_39_" class="st1" d="M129,176.5c0,2.2-1.8,4-4,4H5c-2.2,0-4-1.8-4-4V4.5c0-2.2,1.8-4,4-4h120c2.2,0,4,1.8,4,4
				V176.5z"/>
		</g>
		<path id="XMLID_3_" d="M79.6,90.3c0,12-4.8,20.2-14.7,20.2c-10,0-14.4-9-14.5-19.9c0-11.2,4.8-20.1,14.8-20.1
			C75.5,70.5,79.6,79.7,79.6,90.3z M59.5,90.6c-0.1,8.9,2.1,13.1,5.6,13.1c3.5,0,5.4-4.4,5.4-13.2c0-8.6-1.8-13.1-5.5-13.1
			C61.7,77.3,59.5,81.6,59.5,90.6z"/>
	</g>
</g>
<g id="Layer_2">
	<g id="XMLID_8_" class="st0">
		<g id="XMLID_46_" class="st10">
			<path id="XMLID_52_" class="st1" d="M127.9,177c0,2.2-1.8,4-4,4H3.9c-2.2,0-4-1.8-4-4V5c0-2.2,1.8-4,4-4h120c2.2,0,4,1.8,4,4V177
				z"/>
		</g>
		<g id="XMLID_42_">
			<path id="XMLID_49_" class="st1" d="M128.9,176c0,2.2-1.8,4-4,4H4.9c-2.2,0-4-1.8-4-4V4c0-2.2,1.8-4,4-4h120c2.2,0,4,1.8,4,4V176
				z"/>
		</g>
		<defs>
			<filter id="Adobe_OpacityMaskFilter_1_" filterUnits="userSpaceOnUse" x="0.9" y="0" width="128" height="180">
				<feColorMatrix  type="matrix" values="1 0 0 0 0  0 1 0 0 0  0 0 1 0 0  0 0 0 1 0"/>
			</filter>
		</defs>
		<mask maskUnits="userSpaceOnUse" x="0.9" y="0" width="128" height="180" id="XMLID_280_" class="st1">
			<g id="XMLID_21_" style="filter:url(#Adobe_OpacityMaskFilter_1_);">
				<g id="XMLID_34_">
					<polygon id="XMLID_36_" class="st7" points="129,112.9 129,180 63.9,180 					"/>
					<polygon id="XMLID_35_" class="st8" points="-1.1,65.1 -1.1,-1 63,-1 					"/>
				</g>
				<g id="XMLID_28_">
					<polygon id="XMLID_33_" class="st8" points="129,114.9 129,181 64.9,181 					"/>
					<polygon id="XMLID_32_" class="st7" points="0.9,67.1 0.9,0 66,0 					"/>
					<polygon id="XMLID_31_" class="st8" points="-0.1,66.1 -0.1,0 64,0 					"/>
				</g>
			</g>
		</mask>
		<g id="XMLID_38_" class="st12">
			<path id="XMLID_57_" class="st1" d="M128.9,176c0,2.2-1.8,4-4,4H4.9c-2.2,0-4-1.8-4-4V4c0-2.2,1.8-4,4-4h120c2.2,0,4,1.8,4,4V176
				z"/>
		</g>
		<path id="XMLID_10_" class="st1" d="M64.9,66c-13.3,0-24,10.7-24,24s10.7,24,24,24s24-10.7,24-24S78.2,66,64.9,66z M44.9,90
			c0-11,9-20,20-20c4.8,0,9.2,1.7,12.7,4.5l-28.1,28.1C46.6,99.2,44.9,94.8,44.9,90z M64.9,110c-4.8,0-9.2-1.7-12.7-4.5l28.1-28.1
			c2.8,3.4,4.5,7.9,4.5,12.7C84.9,101,76,110,64.9,110z"/>
	</g>
</g>
<g id="Layer_3" class="st0">
	<g id="XMLID_22_" class="st1">
		<g id="XMLID_67_" class="st2">
			<path id="XMLID_73_" class="st1" d="M128,177c0,2.2-1.8,4-4,4H4c-2.2,0-4-1.8-4-4V5c0-2.2,1.8-4,4-4h120c2.2,0,4,1.8,4,4V177z"/>
		</g>
		<g id="XMLID_63_" class="st0">
			<path id="XMLID_70_" class="st1" d="M129,176c0,2.2-1.8,4-4,4H5c-2.2,0-4-1.8-4-4V4c0-2.2,1.8-4,4-4h120c2.2,0,4,1.8,4,4V176z"/>
		</g>
		<defs>
			<filter id="Adobe_OpacityMaskFilter_2_" filterUnits="userSpaceOnUse" x="1" y="0" width="128" height="180">
				<feColorMatrix  type="matrix" values="1 0 0 0 0  0 1 0 0 0  0 0 1 0 0  0 0 0 1 0"/>
			</filter>
		</defs>
		<mask maskUnits="userSpaceOnUse" x="1" y="0" width="128" height="180" id="XMLID_282_">
			<g id="XMLID_43_" class="st13">
				<g id="XMLID_56_">
					<polygon id="XMLID_59_" class="st7" points="129.1,112.9 129.1,180 64,180 					"/>
					<polygon id="XMLID_58_" class="st8" points="-1,65.1 -1,-1 63.1,-1 					"/>
				</g>
				<g id="XMLID_44_">
					<polygon id="XMLID_54_" class="st8" points="129.1,114.9 129.1,181 65,181 					"/>
					<polygon id="XMLID_53_" class="st7" points="1,67.1 1,0 66.1,0 					"/>
					<polygon id="XMLID_48_" class="st8" points="0,66.1 0,0 64.1,0 					"/>
				</g>
			</g>
		</mask>
		<g id="XMLID_60_" class="st14">
			<path id="XMLID_78_" class="st1" d="M129,176c0,2.2-1.8,4-4,4H5c-2.2,0-4-1.8-4-4V4c0-2.2,1.8-4,4-4h120c2.2,0,4,1.8,4,4V176z"/>
		</g>
		<g id="XMLID_30_">
			<polygon id="XMLID_41_" points="86.4,77.3 84.2,75.2 49.7,109.7 54,114 81,87 82.1,94.6 86.4,90.3 			"/>
			<polygon id="XMLID_40_" points="43.6,102.7 45.8,104.8 80.3,70.3 76,66 49,93 47.9,85.4 43.6,89.7 			"/>
		</g>
	</g>
</g>
<g id="Layer_4" class="st0">
	<g id="XMLID_45_" class="st1">
		<g id="XMLID_93_" class="st2">
			<path id="XMLID_99_" class="st1" d="M127.4,177.5c0,2.2-1.8,4-4,4H3.4c-2.2,0-4-1.8-4-4V5.5c0-2.2,1.8-4,4-4h120c2.2,0,4,1.8,4,4
				V177.5z"/>
		</g>
		<g id="XMLID_89_" class="st0">
			<path id="XMLID_96_" class="st1" d="M128.4,176.5c0,2.2-1.8,4-4,4H4.4c-2.2,0-4-1.8-4-4V4.5c0-2.2,1.8-4,4-4h120c2.2,0,4,1.8,4,4
				V176.5z"/>
		</g>
		<defs>
			<filter id="Adobe_OpacityMaskFilter_3_" filterUnits="userSpaceOnUse" x="0.4" y="0.5" width="128" height="180">
				<feColorMatrix  type="matrix" values="1 0 0 0 0  0 1 0 0 0  0 0 1 0 0  0 0 0 1 0"/>
			</filter>
		</defs>
		<mask maskUnits="userSpaceOnUse" x="0.4" y="0.5" width="128" height="180" id="XMLID_283_">
			<g id="XMLID_77_" class="st15">
				<g id="XMLID_83_">
					<polygon id="XMLID_85_" class="st7" points="128.5,113.4 128.5,180.5 63.4,180.5 					"/>
					<polygon id="XMLID_84_" class="st8" points="-1.6,65.6 -1.6,-0.5 62.5,-0.5 					"/>
				</g>
				<g id="XMLID_79_">
					<polygon id="XMLID_82_" class="st8" points="128.5,115.4 128.5,181.5 64.4,181.5 					"/>
					<polygon id="XMLID_81_" class="st7" points="0.4,67.6 0.4,0.5 65.5,0.5 					"/>
					<polygon id="XMLID_80_" class="st8" points="-0.6,66.6 -0.6,0.5 63.5,0.5 					"/>
				</g>
			</g>
		</mask>
		<g id="XMLID_86_" class="st16">
			<path id="XMLID_104_" class="st1" d="M128.4,176.5c0,2.2-1.8,4-4,4H4.4c-2.2,0-4-1.8-4-4V4.5c0-2.2,1.8-4,4-4h120
				c2.2,0,4,1.8,4,4V176.5z"/>
		</g>
		<g id="XMLID_51_">
			<path id="XMLID_74_" d="M65.2,98.8v-3.4l3.1-2.8c5.2-4.7,7.8-7.4,7.8-10.2c0-2-1.2-3.5-3.9-3.5c-2.1,0-3.9,1-5.1,2l-1.6-4
				c1.8-1.4,4.6-2.5,7.8-2.5c5.4,0,8.4,3.2,8.4,7.5c0,4-2.9,7.2-6.4,10.3l-2.2,1.8v0.1h9v4.6H65.2z"/>
			<g id="XMLID_64_">
				<path id="XMLID_65_" d="M56.2,78.3v6.9h6.6v3h-6.6V95h-3.1v-6.9h-6.6v-3h6.6v-6.9H56.2z"/>
			</g>
			<rect id="XMLID_62_" x="40.4" y="102.5" width="20.9" height="4"/>
			<rect id="XMLID_1_" x="68.1" y="102.5" width="20.9" height="4"/>
		</g>
	</g>
</g>
<g id="Layer_5" class="st0">
	<g id="XMLID_66_" class="st1">
		<g id="XMLID_114_" class="st10">
			<path id="XMLID_122_" class="st17" d="M128.3,177c0,2.2-1.8,4-4,4H4.3c-2.2,0-4-1.8-4-4V5c0-2.2,1.8-4,4-4h120c2.2,0,4,1.8,4,4
				V177z"/>
		</g>
		<g id="XMLID_110_">
			<path id="XMLID_119_" class="st18" d="M129.3,176c0,2.2-1.8,4-4,4H5.3c-2.2,0-4-1.8-4-4V4c0-2.2,1.8-4,4-4h120c2.2,0,4,1.8,4,4
				V176z"/>
			<path id="XMLID_118_" class="st19" d="M129.3,176c0,2.2-1.8,4-4,4H5.3c-2.2,0-4-1.8-4-4V4c0-2.2,1.8-4,4-4h120c2.2,0,4,1.8,4,4
				V176z"/>
		</g>
		<defs>
			<filter id="Adobe_OpacityMaskFilter_4_" filterUnits="userSpaceOnUse" x="1.3" y="0" width="128" height="180">
				<feColorMatrix  type="matrix" values="1 0 0 0 0  0 1 0 0 0  0 0 1 0 0  0 0 0 1 0"/>
			</filter>
		</defs>
		<mask maskUnits="userSpaceOnUse" x="1.3" y="0" width="128" height="180" id="XMLID_284_">
			<g id="XMLID_92_" class="st20">
				<g id="XMLID_103_">
					<polygon id="XMLID_106_" class="st7" points="129.4,112.9 129.4,180 64.3,180 					"/>
					<polygon id="XMLID_105_" class="st8" points="-0.7,65.1 -0.7,-1 63.4,-1 					"/>
				</g>
				<g id="XMLID_95_">
					<polygon id="XMLID_101_" class="st8" points="129.4,114.9 129.4,181 65.3,181 					"/>
					<polygon id="XMLID_100_" class="st7" points="1.3,67.1 1.3,0 66.4,0 					"/>
					<polygon id="XMLID_98_" class="st8" points="0.3,66.1 0.3,0 64.4,0 					"/>
				</g>
			</g>
		</mask>
		<g id="XMLID_107_" class="st21">
			<path id="XMLID_127_" class="st22" d="M129.3,176c0,2.2-1.8,4-4,4H5.3c-2.2,0-4-1.8-4-4V4c0-2.2,1.8-4,4-4h120c2.2,0,4,1.8,4,4
				V176z"/>
		</g>
		<g id="XMLID_72_">
			<polygon id="XMLID_91_" class="st23" points="77.8,73.6 65.3,89.2 52.8,73.6 65.3,58 			"/>
			<polygon id="XMLID_90_" class="st24" points="48.9,77.5 64.5,90 48.9,102.5 33.3,90 			"/>
			<polygon id="XMLID_88_" class="st25" points="52.8,106.4 65.3,90.8 77.8,106.4 65.3,122 			"/>
			<polygon id="XMLID_87_" class="st26" points="81.7,103.1 66.1,90.6 81.7,78.1 97.3,90.6 			"/>
		</g>
	</g>
</g>
<g id="Layer_7" class="st0">
</g>
<g id="Layer_6" class="st0">
	<g id="XMLID_108_">
		<g id="XMLID_153_" class="st10">
			<path id="XMLID_155_" class="st3" d="M-831.7-757c0,2.2-1.8,4-4,4h-120c-2.2,0-4-1.8-4-4v-172c0-2.2,1.8-4,4-4h120
				c2.2,0,4,1.8,4,4V-757z"/>
		</g>
		<g id="XMLID_149_">
			<path id="XMLID_152_" class="st4" d="M-830.7-758c0,2.2-1.8,4-4,4h-120c-2.2,0-4-1.8-4-4v-172c0-2.2,1.8-4,4-4h120
				c2.2,0,4,1.8,4,4V-758z"/>
			<path id="XMLID_151_" class="st5" d="M-830.7-758c0,2.2-1.8,4-4,4h-120c-2.2,0-4-1.8-4-4v-172c0-2.2,1.8-4,4-4h120
				c2.2,0,4,1.8,4,4V-758z"/>
		</g>
		<defs>
			<filter id="Adobe_OpacityMaskFilter_5_" filterUnits="userSpaceOnUse" x="-958.7" y="-934" width="128" height="180">
				<feColorMatrix  type="matrix" values="1 0 0 0 0  0 1 0 0 0  0 0 1 0 0  0 0 0 1 0"/>
			</filter>
		</defs>
		<mask maskUnits="userSpaceOnUse" x="-958.7" y="-934" width="128" height="180" id="XMLID_285_" class="st1">
			<g id="XMLID_138_" style="filter:url(#Adobe_OpacityMaskFilter_5_);">
				<g id="XMLID_143_">
					<polygon id="XMLID_145_" class="st7" points="129.4,112.9 129.4,180 64.3,180 					"/>
					<polygon id="XMLID_144_" class="st8" points="-0.7,65.1 -0.7,-1 63.4,-1 					"/>
				</g>
				<g id="XMLID_139_">
					<polygon id="XMLID_142_" class="st8" points="129.4,114.9 129.4,181 65.3,181 					"/>
					<polygon id="XMLID_141_" class="st7" points="1.3,67.1 1.3,0 66.4,0 					"/>
					<polygon id="XMLID_140_" class="st8" points="0.3,66.1 0.3,0 64.4,0 					"/>
				</g>
			</g>
		</mask>
		<g id="XMLID_146_" class="st28">
			<path id="XMLID_148_" class="st29" d="M-830.7-758c0,2.2-1.8,4-4,4h-120c-2.2,0-4-1.8-4-4v-172c0-2.2,1.8-4,4-4h120
				c2.2,0,4,1.8,4,4V-758z"/>
		</g>
		<path id="XMLID_135_" class="st29" d="M73.5,101v-5.7H62.9v-3.6L72,77h6.8v14h2.9v4.2h-2.9v5.7H73.5z M73.5,91.1v-5.3
			c0-1.4,0.1-2.9,0.2-4.5h-0.1c-0.8,1.5-1.4,2.9-2.2,4.5L68.2,91v0.1H73.5z"/>
		<g id="XMLID_132_" class="st1">
			<path id="XMLID_133_" class="st22" d="M54.9,80.6v6.9h6.6v3h-6.6v6.9h-3.1v-6.9h-6.6v-3h6.6v-6.9H54.9z"/>
		</g>
		<g id="XMLID_109_" class="st1">
			<path id="XMLID_131_" class="st30" d="M65.3,66.5"/>
			<g id="XMLID_129_">
				
					<rect id="XMLID_130_" x="57.4" y="71.5" transform="matrix(0.7071 0.7071 -0.7071 0.7071 75.1738 -37.5033)" class="st23" width="50.9" height="1"/>
			</g>
			<g id="XMLID_126_">
				
					<rect id="XMLID_128_" x="22.1" y="106.8" transform="matrix(0.7071 0.7071 -0.7071 0.7071 89.7999 -2.1927)" class="st25" width="50.9" height="1"/>
			</g>
			<g id="XMLID_123_">
				
					<rect id="XMLID_124_" x="82.4" y="81.8" transform="matrix(0.7071 0.7071 -0.7071 0.7071 100.1422 -27.161)" class="st31" width="1" height="50.9"/>
			</g>
			<g id="XMLID_116_">
				
					<rect id="XMLID_121_" x="47.1" y="46.5" transform="matrix(0.7071 0.7072 -0.7072 0.7071 64.8308 -12.5365)" class="st24" width="1" height="50.9"/>
			</g>
			<g id="XMLID_113_">
				
					<rect id="XMLID_115_" x="61.4" y="61.8" transform="matrix(0.7071 0.7071 -0.7071 0.7071 65.4238 -33.4647)" class="st23" width="23.3" height="1"/>
			</g>
			<g id="XMLID_111_">
				
					<rect id="XMLID_112_" x="45.6" y="116.6" transform="matrix(0.7071 0.7071 -0.7071 0.7071 99.5499 -6.2313)" class="st25" width="23.3" height="1"/>
			</g>
		</g>
	</g>
</g>
<g id="Layer_8">
	<path id="XMLID_157_" d="M12.9,21.6C7.2,21.6,2.5,26.2,2.5,32s4.6,10.4,10.4,10.4S23.3,37.7,23.3,32S18.6,21.6,12.9,21.6z M4.3,32
		c0-4.8,3.9-8.6,8.6-8.6c2.1,0,4,0.7,5.5,2L6.2,37.4C5,36,4.3,34,4.3,32z M12.9,40.6c-2.1,0-4-0.7-5.5-2l12.2-12.2
		c1.2,1.5,2,3.4,2,5.5C21.6,36.7,17.7,40.6,12.9,40.6z"/>
	<g id="XMLID_161_">
		<polygon id="XMLID_163_" points="23.1,53.4 22,52.3 5.4,68.9 7.5,71 20.5,58 21,61.7 23.1,59.6 		"/>
		<polygon id="XMLID_162_" points="2.5,65.6 3.5,66.6 20.1,50 18.1,47.9 5.1,60.9 4.6,57.3 2.5,59.3 		"/>
	</g>
	<text id="XMLID_164_" transform="matrix(1 0 0 1 27.4865 37.4411)" class="st32 st33">Pular Vez</text>
	<text id="XMLID_166_" transform="matrix(1 0 0 1 27.487 64.5461)" class="st32 st33">Inverter</text>
	<g id="XMLID_165_">
		<path id="XMLID_172_" d="M13.2,89.5v-1.5l1.4-1.3c2.4-2.1,3.5-3.4,3.6-4.6c0-0.9-0.5-1.6-1.8-1.6c-0.9,0-1.8,0.5-2.3,0.9l-0.7-1.8
			c0.8-0.6,2.1-1.1,3.6-1.1c2.5,0,3.8,1.4,3.8,3.4c0,1.8-1.3,3.3-2.9,4.7l-1,0.8v0h4.1v2.1H13.2z"/>
		<g id="XMLID_169_">
			<path id="XMLID_170_" d="M9.1,80.1v3.1h3v1.3h-3v3.2H7.7v-3.2h-3v-1.3h3v-3.1H9.1z"/>
		</g>
		<rect id="XMLID_168_" x="1.9" y="91.2" width="9.5" height="1.8"/>
		<rect id="XMLID_167_" x="14.5" y="91.2" width="9.5" height="1.8"/>
	</g>
	<text id="XMLID_174_" transform="matrix(1 0 0 1 27.487 91.1765)" class="st32 st33">Comprar Duas</text>
	<g id="XMLID_175_">
		<polygon id="XMLID_179_" class="st23" points="17.2,105.6 12.9,110.9 8.7,105.6 12.9,100.3 		"/>
		<polygon id="XMLID_178_" class="st24" points="7.3,107 12.6,111.2 7.3,115.5 2,111.2 		"/>
		<polygon id="XMLID_177_" class="st25" points="8.7,116.8 12.9,111.5 17.2,116.8 12.9,122.1 		"/>
		<polygon id="XMLID_176_" class="st26" points="18.5,115.7 13.2,111.4 18.5,107.2 23.8,111.4 		"/>
	</g>
	<text id="XMLID_181_" transform="matrix(1 0 0 1 27.487 116.778)" class="st32 st33">Coringa</text>
	<g id="XMLID_180_">
		<g id="XMLID_217_" class="st2">
			<path id="XMLID_219_" class="st3" d="M-351.7-290c0,2.2-1.8,4-4,4h-120c-2.2,0-4-1.8-4-4v-172c0-2.2,1.8-4,4-4h120
				c2.2,0,4,1.8,4,4V-290z"/>
		</g>
		<g id="XMLID_213_" class="st0">
			<path id="XMLID_216_" class="st4" d="M-350.7-291c0,2.2-1.8,4-4,4h-120c-2.2,0-4-1.8-4-4v-172c0-2.2,1.8-4,4-4h120
				c2.2,0,4,1.8,4,4V-291z"/>
			<path id="XMLID_215_" class="st5" d="M-350.7-291c0,2.2-1.8,4-4,4h-120c-2.2,0-4-1.8-4-4v-172c0-2.2,1.8-4,4-4h120
				c2.2,0,4,1.8,4,4V-291z"/>
		</g>
		<defs>
			<filter id="Adobe_OpacityMaskFilter_6_" filterUnits="userSpaceOnUse" x="-478.7" y="-467" width="128" height="180">
				<feColorMatrix  type="matrix" values="1 0 0 0 0  0 1 0 0 0  0 0 1 0 0  0 0 0 1 0"/>
			</filter>
		</defs>
		<mask maskUnits="userSpaceOnUse" x="-478.7" y="-467" width="128" height="180" id="XMLID_286_">
			<g id="XMLID_203_" class="st34">
				<g id="XMLID_208_">
					<polygon id="XMLID_210_" class="st7" points="609.4,579.9 609.4,647 544.3,647 					"/>
					<polygon id="XMLID_209_" class="st8" points="479.3,532.1 479.3,466 543.4,466 					"/>
				</g>
				<g id="XMLID_204_">
					<polygon id="XMLID_207_" class="st8" points="609.4,581.9 609.4,648 545.3,648 					"/>
					<polygon id="XMLID_206_" class="st7" points="481.3,534.1 481.3,467 546.4,467 					"/>
					<polygon id="XMLID_205_" class="st8" points="480.3,533.1 480.3,467 544.4,467 					"/>
				</g>
			</g>
		</mask>
		<g id="XMLID_202_" class="st35">
			<path id="XMLID_212_" class="st29" d="M-350.7-291c0,2.2-1.8,4-4,4h-120c-2.2,0-4-1.8-4-4v-172c0-2.2,1.8-4,4-4h120
				c2.2,0,4,1.8,4,4V-291z"/>
		</g>
		<path id="XMLID_199_" class="st22" d="M553.5,568v-5.7h-10.6v-3.6L552,544h6.8v14h2.9v4.2h-2.9v5.7H553.5z M553.5,558.1v-5.3
			c0-1.4,0.1-2.9,0.2-4.5h-0.1c-0.8,1.5-1.4,2.9-2.2,4.5l-3.2,5.2v0.1H553.5z"/>
		<g id="XMLID_196_">
			<path id="XMLID_197_" class="st22" d="M534.9,547.6v6.9h6.6v3h-6.6v6.9h-3.1v-6.9h-6.6v-3h6.6v-6.9H534.9z"/>
		</g>
		<g id="XMLID_182_">
			<path id="XMLID_195_" class="st30" d="M545.3,533.5"/>
			<g id="XMLID_193_">
				
					<rect id="XMLID_194_" x="537.4" y="538.5" transform="matrix(0.7071 0.7071 -0.7071 0.7071 545.9814 -240.1334)" class="st23" width="50.9" height="1"/>
			</g>
			<g id="XMLID_191_">
				
					<rect id="XMLID_192_" x="502.1" y="573.8" transform="matrix(0.7071 0.7071 -0.7071 0.7071 560.6075 -204.8228)" class="st25" width="50.9" height="1"/>
			</g>
			<g id="XMLID_189_">
				
					<rect id="XMLID_190_" x="562.4" y="548.8" transform="matrix(0.7071 0.7071 -0.7071 0.7071 570.9498 -229.7912)" class="st31" width="1" height="50.9"/>
			</g>
			<g id="XMLID_187_">
				
					<rect id="XMLID_188_" x="527.1" y="513.5" transform="matrix(0.7071 0.7072 -0.7072 0.7071 535.687 -215.1673)" class="st24" width="1" height="50.9"/>
			</g>
			<g id="XMLID_185_">
				
					<rect id="XMLID_186_" x="541.4" y="528.8" transform="matrix(0.7071 0.7071 -0.7071 0.7071 536.2314 -236.0948)" class="st23" width="23.3" height="1"/>
			</g>
			<g id="XMLID_183_">
				
					<rect id="XMLID_184_" x="525.6" y="583.6" transform="matrix(0.7071 0.7071 -0.7071 0.7071 570.3575 -208.8614)" class="st25" width="23.3" height="1"/>
			</g>
		</g>
	</g>
	<g id="XMLID_220_">
		<g id="XMLID_256_" class="st2">
			<path id="XMLID_258_" class="st3" d="M-351.7-290c0,2.2-1.8,4-4,4h-120c-2.2,0-4-1.8-4-4v-172c0-2.2,1.8-4,4-4h120
				c2.2,0,4,1.8,4,4V-290z"/>
		</g>
		<g id="XMLID_252_" class="st0">
			<path id="XMLID_255_" class="st4" d="M-350.7-291c0,2.2-1.8,4-4,4h-120c-2.2,0-4-1.8-4-4v-172c0-2.2,1.8-4,4-4h120
				c2.2,0,4,1.8,4,4V-291z"/>
			<path id="XMLID_254_" class="st5" d="M-350.7-291c0,2.2-1.8,4-4,4h-120c-2.2,0-4-1.8-4-4v-172c0-2.2,1.8-4,4-4h120
				c2.2,0,4,1.8,4,4V-291z"/>
		</g>
		<defs>
			<filter id="Adobe_OpacityMaskFilter_7_" filterUnits="userSpaceOnUse" x="-478.7" y="-467" width="128" height="180">
				<feColorMatrix  type="matrix" values="1 0 0 0 0  0 1 0 0 0  0 0 1 0 0  0 0 0 1 0"/>
			</filter>
		</defs>
		<mask maskUnits="userSpaceOnUse" x="-478.7" y="-467" width="128" height="180" id="XMLID_287_">
			<g id="XMLID_242_" class="st36">
				<g id="XMLID_247_">
					<polygon id="XMLID_249_" class="st7" points="609.4,579.9 609.4,647 544.3,647 					"/>
					<polygon id="XMLID_248_" class="st8" points="479.3,532.1 479.3,466 543.4,466 					"/>
				</g>
				<g id="XMLID_243_">
					<polygon id="XMLID_246_" class="st8" points="609.4,581.9 609.4,648 545.3,648 					"/>
					<polygon id="XMLID_245_" class="st7" points="481.3,534.1 481.3,467 546.4,467 					"/>
					<polygon id="XMLID_244_" class="st8" points="480.3,533.1 480.3,467 544.4,467 					"/>
				</g>
			</g>
		</mask>
		<g id="XMLID_241_" class="st37">
			<path id="XMLID_251_" class="st29" d="M-350.7-291c0,2.2-1.8,4-4,4h-120c-2.2,0-4-1.8-4-4v-172c0-2.2,1.8-4,4-4h120
				c2.2,0,4,1.8,4,4V-291z"/>
		</g>
		<path id="XMLID_238_" class="st22" d="M553.5,568v-5.7h-10.6v-3.6L552,544h6.8v14h2.9v4.2h-2.9v5.7H553.5z M553.5,558.1v-5.3
			c0-1.4,0.1-2.9,0.2-4.5h-0.1c-0.8,1.5-1.4,2.9-2.2,4.5l-3.2,5.2v0.1H553.5z"/>
		<g id="XMLID_235_">
			<path id="XMLID_236_" class="st22" d="M534.9,547.6v6.9h6.6v3h-6.6v6.9h-3.1v-6.9h-6.6v-3h6.6v-6.9H534.9z"/>
		</g>
		<g id="XMLID_221_">
			<path id="XMLID_234_" class="st30" d="M545.3,533.5"/>
			<g id="XMLID_232_">
				
					<rect id="XMLID_233_" x="537.4" y="538.5" transform="matrix(0.7071 0.7071 -0.7071 0.7071 545.9814 -240.1334)" class="st23" width="50.9" height="1"/>
			</g>
			<g id="XMLID_230_">
				
					<rect id="XMLID_231_" x="502.1" y="573.8" transform="matrix(0.7071 0.7071 -0.7071 0.7071 560.6075 -204.8228)" class="st25" width="50.9" height="1"/>
			</g>
			<g id="XMLID_228_">
				
					<rect id="XMLID_229_" x="562.4" y="548.8" transform="matrix(0.7071 0.7071 -0.7071 0.7071 570.9498 -229.7912)" class="st31" width="1" height="50.9"/>
			</g>
			<g id="XMLID_226_">
				
					<rect id="XMLID_227_" x="527.1" y="513.5" transform="matrix(0.7071 0.7072 -0.7072 0.7071 535.687 -215.1673)" class="st24" width="1" height="50.9"/>
			</g>
			<g id="XMLID_224_">
				
					<rect id="XMLID_225_" x="541.4" y="528.8" transform="matrix(0.7071 0.7071 -0.7071 0.7071 536.2314 -236.0948)" class="st23" width="23.3" height="1"/>
			</g>
			<g id="XMLID_222_">
				
					<rect id="XMLID_223_" x="525.6" y="583.6" transform="matrix(0.7071 0.7071 -0.7071 0.7071 570.3575 -208.8614)" class="st25" width="23.3" height="1"/>
			</g>
		</g>
	</g>
	<g id="XMLID_279_">
		<path id="XMLID_276_" class="st22" d="M15.2,143.2v-1.8h-3.3v-1.1l2.8-4.5h2.1v4.3h0.9v1.3h-0.9v1.8H15.2z M15.2,140.1v-1.6
			c0-0.4,0-0.9,0.1-1.4h0c-0.2,0.5-0.4,0.9-0.7,1.4l-1,1.6v0H15.2z"/>
		<g id="XMLID_273_">
			<path id="XMLID_274_" class="st22" d="M9.4,136.9v2.1h2v0.9h-2v2.1h-1v-2.1h-2V139h2v-2.1H9.4z"/>
		</g>
		<g id="XMLID_259_">
			<path id="XMLID_272_" class="st30" d="M12.7,132.5"/>
			<g id="XMLID_270_">
				
					<rect id="XMLID_271_" x="10.2" y="134" transform="matrix(0.7071 0.7071 -0.7071 0.7071 100.1924 26.4937)" class="st23" width="15.8" height="0.3"/>
			</g>
			<g id="XMLID_268_">
				
					<rect id="XMLID_269_" x="-0.7" y="145" transform="matrix(0.7071 0.7071 -0.7071 0.7071 104.7271 37.4415)" class="st25" width="15.8" height="0.3"/>
			</g>
			<g id="XMLID_266_">
				
					<rect id="XMLID_267_" x="18" y="137.2" transform="matrix(0.7071 0.7071 -0.7071 0.7071 107.9336 29.7003)" class="st31" width="0.3" height="15.8"/>
			</g>
			<g id="XMLID_264_">
				
					<rect id="XMLID_265_" x="7" y="126.3" transform="matrix(0.7071 0.7072 -0.7072 0.7071 96.991 34.2406)" class="st24" width="0.3" height="15.8"/>
			</g>
			<g id="XMLID_262_">
				
					<rect id="XMLID_263_" x="11.5" y="131" transform="matrix(0.7071 0.7071 -0.7071 0.7071 97.1695 27.7459)" class="st23" width="7.2" height="0.3"/>
			</g>
			<g id="XMLID_260_">
				
					<rect id="XMLID_261_" x="6.6" y="148" transform="matrix(0.7071 0.7071 -0.7071 0.7071 107.75 36.1893)" class="st25" width="7.2" height="0.3"/>
			</g>
		</g>
	</g>
	<text id="XMLID_281_" transform="matrix(1 0 0 1 27.4865 144.6999)" class="st32 st33">Coringa +4</text>
</g>
</svg>
