<?xml version="1.0" encoding="utf-8"?>
<!-- Generator: Adobe Illustrator 19.0.0, SVG Export Plug-In . SVG Version: 6.00 Build 0)  -->
<svg version="1.1" id="Layer_1" xmlns="http://www.w3.org/2000/svg" xmlns:xlink="http://www.w3.org/1999/xlink" x="0px" y="0px"
	 viewBox="0 0 129 181" style="enable-background:new 0 0 129 181;" xml:space="preserve">
<style type="text/css">
	.st0{opacity:0.75;}
	.st1{fill:#676767;}
	.st2{fill:#F3F3F3;}
	.st3{fill:none;stroke:#818181;stroke-width:0.25;stroke-miterlimit:10;}
	.st4{filter:url(#Adobe_OpacityMaskFilter);}
	.st5{fill:#333333;}
	.st6{fill:#FFFFFF;}
	.st7{display:none;mask:url(#XMLID_8_);}
	.st8{display:inline;}
	.st9{display:none;}
</style>
<g id="XMLID_2_">
	<g id="XMLID_23_" class="st0">
		<path id="XMLID_29_" class="st1" d="M128,177.5c0,2.2-1.8,4-4,4H4c-2.2,0-4-1.8-4-4V5.5c0-2.2,1.8-4,4-4h120c2.2,0,4,1.8,4,4
			V177.5z"/>
	</g>
	<g id="XMLID_19_">
		<path id="XMLID_26_" class="st2" d="M129,176.5c0,2.2-1.8,4-4,4H5c-2.2,0-4-1.8-4-4V4.5c0-2.2,1.8-4,4-4h120c2.2,0,4,1.8,4,4
			V176.5z"/>
		<path id="XMLID_25_" class="st3" d="M129,176.5c0,2.2-1.8,4-4,4H5c-2.2,0-4-1.8-4-4V4.5c0-2.2,1.8-4,4-4h120c2.2,0,4,1.8,4,4
			V176.5z"/>
	</g>
	<defs>
		<filter id="Adobe_OpacityMaskFilter" filterUnits="userSpaceOnUse" x="1" y="0.5" width="128" height="180">
			<feColorMatrix  type="matrix" values="1 0 0 0 0  0 1 0 0 0  0 0 1 0 0  0 0 0 1 0"/>
		</filter>
	</defs>
	<mask maskUnits="userSpaceOnUse" x="1" y="0.5" width="128" height="180" id="XMLID_8_">
		<g id="XMLID_6_" class="st4">
			<g id="XMLID_13_">
				<polygon id="XMLID_15_" class="st5" points="129.1,113.4 129.1,180.5 64,180.5 				"/>
				<polygon id="XMLID_14_" class="st6" points="-1,65.6 -1,-0.5 63.1,-0.5 				"/>
			</g>
			<g id="XMLID_7_">
				<polygon id="XMLID_12_" class="st6" points="129.1,115.4 129.1,181.5 65,181.5 				"/>
				<polygon id="XMLID_11_" class="st5" points="1,67.6 1,0.5 66.1,0.5 				"/>
				<polygon id="XMLID_9_" class="st6" points="0,66.6 0,0.5 64.1,0.5 				"/>
			</g>
		</g>
	</mask>
	<g id="XMLID_16_" class="st7">
		<path id="XMLID_39_" class="st8" d="M129,176.5c0,2.2-1.8,4-4,4H5c-2.2,0-4-1.8-4-4V4.5c0-2.2,1.8-4,4-4h120c2.2,0,4,1.8,4,4
			V176.5z"/>
	</g>
	<path id="XMLID_3_" class="st9" d="M79.6,90.3c0,12-4.8,20.2-14.7,20.2c-10,0-14.4-9-14.5-19.9c0-11.2,4.8-20.1,14.8-20.1
		C75.5,70.5,79.6,79.7,79.6,90.3z M59.5,90.6c-0.1,8.9,2.1,13.1,5.6,13.1c3.5,0,5.4-4.4,5.4-13.2c0-8.6-1.8-13.1-5.5-13.1
		C61.7,77.3,59.5,81.6,59.5,90.6z"/>
</g>
</svg>
