<?xml version="1.0" encoding="utf-8"?>
<!-- Generator: Adobe Illustrator 19.0.0, SVG Export Plug-In . SVG Version: 6.00 Build 0)  -->
<svg version="1.1" xmlns="http://www.w3.org/2000/svg" xmlns:xlink="http://www.w3.org/1999/xlink" x="0px" y="0px"
	 viewBox="0 0 141.7 141.7" style="enable-background:new 0 0 141.7 141.7;" xml:space="preserve">
<style type="text/css">
	.st0{fill:#010101;}
	.st1{font-family:'Montserrat-Bold';}
	.st2{font-size:15.8574px;}
	.st3{display:none;}
	.st4{display:inline;}
	.st5{display:inline;fill:#010101;}
</style>
<g id="Layer_1">
	<g id="XMLID_2_">
		<path id="XMLID_26_" class="st0" d="M128.5,38.5c-4.4,0-8,3.6-8,8c0,4.4,3.6,8,8,8c4.4,0,8-3.6,8-8
			C136.5,42.1,132.9,38.5,128.5,38.5z"/>
		<path id="XMLID_25_" class="st0" d="M13.2,38.5c-4.4,0-8,3.6-8,8c0,4.4,3.6,8,8,8c4.4,0,8-3.6,8-8C21.2,42.1,17.6,38.5,13.2,38.5z
			"/>
		<path id="XMLID_24_" class="st0" d="M104.6,23.9c-6.6,0-11.9,5.4-11.9,11.9c0,6.6,5.3,11.9,11.9,11.9c6.6,0,11.9-5.4,11.9-11.9
			C116.6,29.2,111.2,23.9,104.6,23.9z"/>
		<path id="XMLID_23_" class="st0" d="M141.7,96.5h-13.6v-25c0-4.3-1.3-8.3-3.3-11.8c1.2-0.3,2.4-0.6,3.7-0.6
			c7.3,0,13.2,5.9,13.2,13.2V96.5z"/>
		<path id="XMLID_22_" class="st0" d="M37.1,23.9c-6.6,0-11.9,5.4-11.9,11.9c0,6.6,5.4,11.9,11.9,11.9c6.6,0,11.9-5.4,11.9-11.9
			C49,29.2,43.6,23.9,37.1,23.9z"/>
		<path id="XMLID_21_" class="st0" d="M13.2,59c1.3,0,2.5,0.2,3.7,0.6c-2,3.5-3.3,7.5-3.3,11.8v25H0V72.2C0,65,5.9,59,13.2,59z"/>
		<path id="XMLID_20_" class="st0" d="M70.8,0c-9.7,0-17.6,7.9-17.6,17.6c0,9.7,7.9,17.7,17.6,17.7s17.7-7.9,17.7-17.7
			C88.5,7.9,80.6,0,70.8,0z"/>
		<path id="XMLID_19_" class="st0" d="M123.7,105.8h-20.8V67.7c0-5.2-1.4-10.1-3.6-14.5c1.7-0.5,3.5-0.9,5.4-0.9
			c10.5,0,19.1,8.6,19.1,19.1V105.8z"/>
		<path id="XMLID_18_" class="st0" d="M38.8,67.7v38.1H18V71.4c0-10.5,8.6-19.1,19.1-19.1c1.9,0,3.7,0.4,5.4,0.9
			C40.2,57.6,38.8,62.4,38.8,67.7z"/>
		<path id="XMLID_17_" class="st0" d="M43.2,116.8h55.4V67.7C98.5,52.4,86.1,40,70.8,40c-15.3,0-27.7,12.4-27.7,27.7V116.8z"/>
	</g>
	<text id="XMLID_1_" transform="matrix(1 0 0 1 -0.2464 141.73)" class="st0 st1 st2">2-10 JOGADORES</text>
</g>
<g id="Layer_2" class="st3">
	<g id="XMLID_4_" class="st4">
		<circle id="XMLID_8_" class="st0" cx="70.8" cy="18.5" r="18.5"/>
		<path id="XMLID_7_" class="st0" d="M81.4,116.8L81.4,116.8L81.4,116.8z"/>
		<path id="XMLID_6_" class="st0" d="M110.9,61.2L94.2,44.4c-3.1-3.1-7.3-4.8-11.7-4.8H59.3c-4.4,0-8.6,1.8-11.7,4.8L30.7,61.2
			c-3.1,3.1-3.1,8.3,0,11.2l0,0c3.1,3.4,8.2,3.2,11.4,0l10.2-10.2v46.6c0,4.4,3.5,8,8,8c4.4,0,8-3.6,8-8V91.2c0-1.3,1.2-2.5,2.5-2.5
			c1.3,0,2.5,1.2,2.5,2.5v17.5c0,4.4,3.5,8,8,8c4.4,0,8-3.6,8-8V62.3l10.2,10.2c3.1,3.1,8.2,3.2,11.4,0l0,0
			C114.1,69.5,114.1,64.2,110.9,61.2z"/>
		<path id="XMLID_5_" class="st0" d="M60.3,116.8L60.3,116.8L60.3,116.8z"/>
	</g>
	<text id="XMLID_3_" transform="matrix(1 0 0 1 31.1266 141.7295)" class="st5 st1 st2">10+ ANOS</text>
</g>
</svg>
