<?xml version="1.0" encoding="utf-8"?>
<!-- Generator: Adobe Illustrator 19.0.0, SVG Export Plug-In . SVG Version: 6.00 Build 0)  -->
<svg version="1.1" xmlns="http://www.w3.org/2000/svg" xmlns:xlink="http://www.w3.org/1999/xlink" x="0px" y="0px"
	 viewBox="0 0 85 85" style="enable-background:new 0 0 85 85;" xml:space="preserve">
<style type="text/css">
	.st0{display:none;}
	.st1{display:inline;}
	.st2{fill:#F16462;}
	.st3{fill:#18C1E3;}
	.st4{fill:#61C090;}
	.st5{fill:#F7E041;}
	.st6{fill:#575858;}
</style>
<g id="Layer_1" class="st0">
	<g id="XMLID_14_" class="st1">
		<polygon id="XMLID_12_" class="st2" points="59.1,20.7 42.5,41.5 25.9,20.7 42.5,0 		"/>
		<polygon id="XMLID_11_" class="st3" points="20.7,25.9 41.5,42.5 20.7,59.1 0,42.5 		"/>
		<polygon id="XMLID_10_" class="st4" points="25.9,64.3 42.5,43.6 59.1,64.3 42.5,85 		"/>
		<polygon id="XMLID_9_" class="st5" points="64.3,59.1 43.6,42.5 64.3,25.9 85,42.5 		"/>
	</g>
</g>
<g id="Layer_2">
	<g id="XMLID_2_">
		<g id="XMLID_48_">
			<path id="XMLID_32_" class="st2" d="M13.8,57.1c-1.7,0-3.3-0.3-4.7-0.9c-1.4-0.6-2.6-1.4-3.5-2.4c-1-1-1.7-2.2-2.2-3.6
				c-0.5-1.4-0.8-2.9-0.8-4.5V29.4h5.3v16.3c0,1,0.1,1.9,0.4,2.7c0.3,0.8,0.7,1.5,1.2,2c0.5,0.6,1.1,1,1.8,1.3
				c0.7,0.3,1.6,0.5,2.5,0.5c0.9,0,1.8-0.2,2.5-0.5c0.7-0.3,1.4-0.7,1.9-1.3c0.5-0.6,0.9-1.2,1.2-2c0.3-0.8,0.4-1.7,0.4-2.7V29.4
				h5.3v16.4c0,1.6-0.3,3.1-0.8,4.5c-0.5,1.4-1.3,2.6-2.2,3.6c-1,1-2.2,1.8-3.5,2.4C17.1,56.8,15.6,57.1,13.8,57.1z"/>
			<path id="XMLID_28_" class="st6" d="M24.6,29.9v15.9c0,1.5-0.2,3-0.7,4.3c-0.5,1.3-1.2,2.5-2.1,3.4c-0.9,1-2.1,1.7-3.4,2.2
				c-1.3,0.5-2.8,0.8-4.5,0.8c-1.7,0-3.1-0.3-4.5-0.8C8,55.2,6.9,54.5,6,53.5c-0.9-1-1.6-2.1-2.1-3.4c-0.5-1.3-0.7-2.7-0.7-4.3V29.9
				h4.3v15.8c0,1,0.1,2,0.4,2.9c0.3,0.9,0.7,1.6,1.3,2.2c0.5,0.6,1.2,1.1,2,1.4c0.8,0.3,1.7,0.5,2.7,0.5c1,0,1.9-0.2,2.7-0.5
				c0.8-0.3,1.5-0.8,2-1.4c0.6-0.6,1-1.3,1.3-2.2c0.3-0.9,0.4-1.8,0.4-2.9V29.9H24.6 M25.6,28.9h-1h-4.3h-1v1v15.9
				c0,0.9-0.1,1.8-0.4,2.5c-0.2,0.7-0.6,1.3-1.1,1.9c-0.5,0.5-1,0.9-1.7,1.2c-0.7,0.3-1.5,0.4-2.3,0.4c-0.9,0-1.7-0.1-2.3-0.4
				c-0.7-0.3-1.2-0.7-1.7-1.2c-0.5-0.5-0.8-1.1-1.1-1.9c-0.3-0.8-0.4-1.6-0.4-2.5V29.9v-1h-1H3.1h-1v1v15.9c0,1.7,0.3,3.2,0.8,4.6
				c0.5,1.4,1.3,2.7,2.3,3.8c1,1.1,2.3,1.9,3.7,2.5c1.4,0.6,3.1,0.9,4.9,0.9c1.8,0,3.4-0.3,4.8-0.9c1.4-0.6,2.7-1.4,3.7-2.5
				c1-1.1,1.8-2.3,2.3-3.8c0.5-1.4,0.8-3,0.8-4.6V29.9V28.9L25.6,28.9z"/>
		</g>
		<g id="XMLID_29_">
			<path id="XMLID_36_" class="st5" d="M50.1,56.8c-0.4,0-0.8-0.1-1.1-0.2c-0.3-0.1-0.6-0.4-0.8-0.7L34.8,38.5c0,0.1,0,0.3,0,0.4
				v17.8H30V29.4h2.7c0.2,0,0.4,0,0.5,0c0.2,0,0.3,0.1,0.5,0.1c0.2,0.1,0.3,0.2,0.5,0.3c0.1,0.1,0.2,0.2,0.4,0.4L48,47.7
				c0-0.2,0-0.4,0-0.6V29.4h4.7v27.3H50.1z"/>
			<path id="XMLID_33_" class="st6" d="M52.3,29.9v26.3h-2.2c-0.3,0-0.6-0.1-0.8-0.2c-0.2-0.1-0.5-0.3-0.7-0.6L34.1,36.9
				c0,0.4,0.1,0.7,0.1,1.1c0,0.3,0,0.7,0,1v17.3h-3.8V29.9h2.2c0.2,0,0.3,0,0.5,0c0.1,0,0.2,0.1,0.4,0.1c0.1,0,0.2,0.1,0.3,0.2
				c0.1,0.1,0.2,0.2,0.3,0.4l14.5,18.6c0-0.4-0.1-0.7-0.1-1.1c0-0.4,0-0.7,0-1V29.9H52.3 M53.3,28.9h-1h-3.7h-1v1v16.3L35,30
				c-0.1-0.2-0.3-0.3-0.4-0.5c-0.2-0.2-0.4-0.3-0.6-0.4c-0.2-0.1-0.4-0.1-0.6-0.2c-0.2,0-0.4,0-0.6,0h-2.2h-1v1v26.3v1h1h3.8h1v-1
				V40l12.6,16.1c0.3,0.4,0.6,0.7,1,0.9c0.4,0.2,0.8,0.3,1.3,0.3h2.2h1v-1V29.9V28.9L53.3,28.9z"/>
		</g>
		<g id="XMLID_3_">
			<path id="XMLID_55_" class="st4" d="M70.1,57c-2,0-3.9-0.4-5.6-1c-1.7-0.7-3.1-1.7-4.3-2.9c-1.2-1.2-2.1-2.7-2.8-4.4
				c-0.7-1.7-1-3.6-1-5.6c0-2,0.3-3.9,1-5.6c0.7-1.7,1.6-3.2,2.8-4.4c1.2-1.2,2.7-2.2,4.3-2.9c1.7-0.7,3.5-1,5.6-1
				c2,0,3.9,0.4,5.6,1c1.7,0.7,3.1,1.7,4.3,2.9c1.2,1.2,2.1,2.7,2.8,4.4c0.7,1.7,1,3.6,1,5.6c0,2-0.3,3.9-1,5.6
				c-0.7,1.7-1.6,3.2-2.8,4.4c-1.2,1.2-2.6,2.2-4.3,2.9C74,56.7,72.2,57,70.1,57z M70.1,33.8c-1.3,0-2.4,0.2-3.4,0.6
				c-1,0.4-1.9,1-2.6,1.8c-0.7,0.8-1.3,1.8-1.7,2.9c-0.4,1.1-0.6,2.5-0.6,3.9c0,1.5,0.2,2.8,0.6,3.9c0.4,1.1,1,2.1,1.7,2.9
				c0.7,0.8,1.6,1.4,2.6,1.8c1,0.4,2.2,0.6,3.4,0.6c1.3,0,2.4-0.2,3.5-0.6c1-0.4,1.9-1,2.6-1.8c0.7-0.8,1.3-1.7,1.7-2.9
				c0.4-1.1,0.6-2.5,0.6-3.9c0-1.4-0.2-2.8-0.6-3.9c-0.4-1.1-0.9-2.1-1.7-2.9c-0.7-0.8-1.6-1.4-2.6-1.8
				C72.6,34.1,71.4,33.8,70.1,33.8z"/>
			<path id="XMLID_49_" class="st6" d="M70.1,29.6c2,0,3.8,0.3,5.4,1c1.6,0.7,3,1.6,4.2,2.8c1.2,1.2,2,2.6,2.7,4.3
				c0.6,1.6,1,3.4,1,5.4c0,2-0.3,3.7-1,5.4s-1.5,3.1-2.7,4.3c-1.2,1.2-2.5,2.1-4.2,2.8c-1.6,0.7-3.4,1-5.4,1c-2,0-3.8-0.3-5.4-1
				c-1.6-0.7-3-1.6-4.2-2.8c-1.2-1.2-2.1-2.6-2.7-4.3c-0.6-1.6-0.9-3.4-0.9-5.4c0-1.9,0.3-3.7,0.9-5.4c0.6-1.6,1.5-3.1,2.7-4.3
				c1.2-1.2,2.5-2.1,4.2-2.8C66.4,30,68.2,29.6,70.1,29.6 M70.1,52.8c1.4,0,2.6-0.2,3.7-0.7c1.1-0.4,2-1.1,2.8-1.9
				c0.8-0.8,1.3-1.9,1.8-3.1c0.4-1.2,0.6-2.6,0.6-4.1c0-1.5-0.2-2.9-0.6-4.1c-0.4-1.2-1-2.2-1.8-3.1c-0.8-0.8-1.7-1.5-2.8-1.9
				c-1.1-0.5-2.3-0.7-3.7-0.7c-1.3,0-2.6,0.2-3.6,0.7c-1.1,0.5-2,1.1-2.8,1.9c-0.8,0.8-1.4,1.9-1.8,3.1c-0.4,1.2-0.6,2.6-0.6,4.1
				c0,1.5,0.2,2.9,0.6,4.1c0.4,1.2,1,2.2,1.8,3.1c0.8,0.8,1.7,1.5,2.8,1.9C67.6,52.6,68.8,52.8,70.1,52.8 M70.1,28.6
				c-2.1,0-4,0.4-5.7,1.1c-1.7,0.7-3.2,1.7-4.5,3c-1.2,1.3-2.2,2.8-2.9,4.6c-0.7,1.8-1,3.7-1,5.8c0,2.1,0.3,4,1,5.8
				c0.7,1.8,1.7,3.3,2.9,4.6c1.2,1.3,2.8,2.3,4.5,3c1.7,0.7,3.7,1.1,5.8,1.1c2.1,0,4-0.4,5.8-1.1c1.7-0.7,3.2-1.7,4.5-3
				c1.2-1.3,2.2-2.8,2.9-4.6c0.7-1.8,1-3.7,1-5.8c0-2.1-0.3-4-1-5.8c-0.7-1.8-1.7-3.3-2.9-4.6c-1.2-1.3-2.8-2.3-4.5-3
				C74.2,29,72.2,28.6,70.1,28.6L70.1,28.6z M70.1,51.8c-1.2,0-2.3-0.2-3.3-0.6c-1-0.4-1.7-0.9-2.4-1.7c-0.7-0.7-1.2-1.6-1.6-2.7
				c-0.4-1.1-0.6-2.4-0.6-3.8c0-1.4,0.2-2.7,0.6-3.8c0.4-1.1,0.9-2,1.6-2.7c0.7-0.7,1.5-1.3,2.4-1.7c1-0.4,2.1-0.6,3.3-0.6
				c1.2,0,2.3,0.2,3.3,0.6c0.9,0.4,1.8,1,2.4,1.7c0.7,0.7,1.2,1.6,1.5,2.7c0.4,1.1,0.6,2.4,0.6,3.8c0,1.4-0.2,2.7-0.6,3.8
				c-0.4,1.1-0.9,2-1.5,2.7c-0.7,0.7-1.5,1.3-2.4,1.7C72.4,51.6,71.3,51.8,70.1,51.8L70.1,51.8z"/>
		</g>
	</g>
</g>
</svg>
